{"title":"Captain.America.The.Winter.Soldier..2014 DvDRip 500 mb","uid":10662178,"size":567662666,"categoryP":"video","categoryS":"movies","magnet":"?xt=urn:btih:d98f1bed4375ba8038b01eb938a5d61e6f11b267&amp;dn=Captain.America.The.Winter.Soldier..2014+DvDRip+500+mb&amp;tr=udp%3A%2F%2Ftracker.openbittorrent.com%3A80&amp;tr=udp%3A%2F%2Fopen.demonii.com%3A1337&amp;tr=udp%3A%2F%2Ftracker.coppersurfer.tk%3A6969&amp;tr=udp%3A%2F%2Fexodus.desync.com%3A6969","seeders":2,"leechers":0,"uploader":"charlesfire22","files":1,"time":1406742831,"description":"Captain.America.The.Winter.Soldier 2014 DvDRip 500 mb\n\nScreen\n &lt;a href=&quot;\nhttp://bayimg.com/daPihAAfi&quot; rel=&quot;nofollow&quot; target=&quot;_NEW&quot;&gt;\nhttp://bayimg.com/daPihAAfi&lt;/a&gt;\n\nFormat                         : Matroska\nFormat version                 : Version 1\nFile size                      : 541 MiB\nDuration                       : 2h 15mn\nOverall bit rate mode          : Variable\nOverall bit rate               : 557 Kbps\nWriting application            : DivXMKVMux 3.7.0.0073\nWriting library                : libDivXMediaFormat 3.7.0.0073\n\nVideo\nID                             : 1\nFormat                         : AVC\nFormat/Info                    : Advanced Video Codec\nFormat profile                 : &lt;a class=&quot;__cf_email__&quot; href=&quot;/cdn-cgi/l/email-protection&quot; data-cfemail=&quot;81c9e8e6e9c1cdb5afb1&quot;&gt;[email&amp;#160;protected]&lt;/a&gt;&lt;script cf-hash='f9e31' type=&quot;text/javascript&quot;&gt;\n/* &lt;![CDATA[ */!function(){try{var t=&quot;currentScript&quot;in document?document.currentScript:function(){for(var t=document.getElementsByTagName(&quot;script&quot;),e=t.length;e--;)if(t[e].getAttribute(&quot;cf-hash&quot;))return t[e]}();if(t&amp;&amp;t.previousSibling){var e,r,n,i,c=t.previousSibling,a=c.getAttribute(&quot;data-cfemail&quot;);if(a){for(e=&quot;&quot;,r=parseInt(a.substr(0,2),16),n=2;a.length-n;n+=2)i=parseInt(a.substr(n,2),16)^r,e+=String.fromCharCode(i);e=document.createTextNode(e),c.parentNode.replaceChild(e,c)}}}catch(u){}}();/* ]]&gt; */&lt;/script&gt;\nFormat settings, CABAC         : Yes\nFormat settings, ReFrames      : 3 frames\nCodec ID                       : V_MPEG4/ISO/AVC\nDuration                       : 2h 15mn\nBit rate mode                  : Variable\nBit rate                       : 322 Kbps\nMaximum bit rate               : 20.0 Mbps\nWidth                          : 720 pixels\nHeight                         : 304 pixels\nDisplay aspect ratio           : 2.35:1\nFrame rate mode                : Constant\nFrame rate                     : 29.970 fps\nStandard                       : PAL\nColor space                    : YUV\nChroma subsampling             : 4:2:0\nBit depth                      : 8 bits\nScan type                      : Progressive\nBits/(Pixel*Frame)             : 0.049\nStream size                    : 313 MiB (58%)\nLanguage                       : English\nDefault                        : Yes\nForced                         : No\nColor primaries                : BT.601 PAL\nTransfer characteristics       : BT.470 System B, BT.470 System G\nMatrix coefficients            : BT.601\n\nAudio\nID                             : 2\nFormat                         : AC-3\nFormat/Info                    : Audio Coding 3\nMode extension                 : CM (complete main)\nFormat settings, Endianness    : Big\nCodec ID                       : A_AC3\nDuration                       : 2h 15mn\nBit rate mode                  : Constant\nBit rate                       : 224 Kbps\nChannel(s)                     : 6 channels\nChannel positions              : Front: L C R, Side: L R, LFE\nSampling rate                  : 48.0 KHz\nBit depth                      : 16 bits\nCompression mode               : Lossy\nStream size                    : 218 MiB (40%)\nLanguage                       : English\nDefault                        : Yes\nForced                         : No\n","torrent":{"xt":"urn:btih:d98f1bed4375ba8038b01eb938a5d61e6f11b267","amp;dn":"Captain.America.The.Winter.Soldier..2014+DvDRip+500+mb","amp;tr":["udp%3A%2F%2Ftracker.openbittorrent.com%3A80","udp%3A%2F%2Fopen.demonii.com%3A1337","udp%3A%2F%2Ftracker.coppersurfer.tk%3A6969","udp%3A%2F%2Fexodus.desync.com%3A6969"],"infoHash":"d98f1bed4375ba8038b01eb938a5d61e6f11b267","infoHashBuffer":{"type":"Buffer","data":[217,143,27,237,67,117,186,128,56,176,30,185,56,165,214,30,111,17,178,103]},"announce":[],"urlList":[]}}